<svg xmlns="http://www.w3.org/2000/svg" width="50" height="50" fill="none" xmlns:v="https://vecta.io/nano"><path d="M15.23 3.306l-1.437.609c-.458.202-2.737 1.436-3.17 1.697C.407 11.785 1.651 31.373 3.237 36.149c2.016 6.067 8.903 9.541 13.08 11.138C21.161 49.095 26.278 50 31.67 50c6.165 0 10.399-2.136 12.701-6.408S47.826 33.123 47.826 25s-1.151-14.321-3.454-18.592S37.835 0 31.67 0C26.15 0 20.67 1.102 15.23 3.306z" fill="#fff"/><g fill-rule="evenodd"><path d="M39.131 33.362c-.983.367-2.114.551-3.392.551-1.721 0-2.987-.313-3.798-.94s-1.216-1.674-1.216-3.144V17.367h-2.028v-1.556l2.028-1.037 2.581-3.469h1.586v3.469h4.13v2.593h-4.13v11.976c0 .605.159 1.043.479 1.313s.823.405 1.512.405c.811 0 1.561-.119 2.249-.356v2.658h0zm-12.079.254c-2.22 1.068-4.463 1.602-6.728 1.602-3.488 0-6.009-1.085-7.561-3.255s-2.328-5.287-2.328-9.354c0-4.09.77-7.213 2.311-9.371S16.835 10 20.391 10c2.22 0 4.44.534 6.66 1.602v3.476c-2.242-1.159-4.463-1.738-6.66-1.738s-3.71.772-4.536 2.317-1.241 3.862-1.241 6.952c0 3.067.419 5.379 1.258 6.935s2.322 2.334 4.451 2.334c2.56 0 4.916-.647 7.069-1.942l-.34 3.68h0z" fill="#0d3878" fill-rule="nonzero"/><path d="M18.159 39.624s-.72-.169-.764.599.321 1.063.321 1.063c7.331 4.937 20.131.741 23.904-4.754.116-.169.16-.307.073-.407-.125-.095-.302-.006-.556.169-4.412 3.249-14.481 6.522-22.978 3.33z" fill="#ff6f00"/></g></svg>